<?xml version="1.0" encoding="UTF-8" standalone="no"?>
<!DOCTYPE svg PUBLIC "-//W3C//DTD SVG 1.1//EN" "http://www.w3.org/Graphics/SVG/1.1/DTD/svg11.dtd">
<svg width="100%" height="100%" viewBox="0 0 60 60" version="1.1" xmlns="http://www.w3.org/2000/svg" xmlns:xlink="http://www.w3.org/1999/xlink" xml:space="preserve" xmlns:serif="http://www.serif.com/" style="fill-rule:evenodd;clip-rule:evenodd;stroke-linejoin:round;stroke-miterlimit:2;">
    <path d="M57.768,13.642C57.761,14.317 57.417,14.952 56.852,15.332L48.222,21.132C47.287,21.76 46.035,21.522 45.425,20.599C44.816,19.677 45.079,18.42 46.014,17.791L49.054,15.748L22.272,16.013L17.098,21.187C16.716,21.569 16.199,21.787 15.663,21.793L4.233,21.905C3.416,21.914 2.684,21.429 2.378,20.677C2.073,19.925 2.254,19.054 2.838,18.47L7.167,14.141L2.923,9.897C2.351,9.325 2.186,8.457 2.506,7.699C2.827,6.941 3.568,6.442 4.386,6.433L15.816,6.321C16.352,6.315 16.864,6.523 17.239,6.898L22.312,11.971L49.093,11.707L46.093,9.723C45.171,9.113 44.932,7.861 45.56,6.927C46.189,5.992 47.446,5.729 48.368,6.339L56.885,11.969C57.443,12.338 57.775,12.966 57.768,13.642ZM16.597,12.028L14.939,10.37L9.224,10.427L10.882,12.084L16.597,12.028ZM10.842,16.125L9.151,17.816L14.866,17.76L16.557,16.069L10.842,16.125Z" style="fill:#000000;fill-rule:nonzero;"/>
</svg>
