<svg width="100%" height="100%" viewBox="0 0 60 60" version="1.1" xmlns="http://www.w3.org/2000/svg" xmlns:xlink="http://www.w3.org/1999/xlink" xml:space="preserve" xmlns:serif="http://www.serif.com/" style="fill-rule:evenodd;clip-rule:evenodd;stroke-linejoin:round;stroke-miterlimit:2;">
    <path d="M38.67,10.163C37.344,9.075 35.781,8.267 33.947,7.787C33.596,7.354 33.176,6.981 32.704,6.684C31.536,4.269 30.034,1.817 30.034,1.817C30.034,1.817 28.534,4.268 27.366,6.682C26.962,6.936 26.597,7.243 26.282,7.596C24.103,8.031 22.284,8.899 20.771,10.129C9.489,8.276 -0.666,19.611 2.929,31.556C4.374,36.36 11.452,39.446 15.127,37.433C8.201,37.444 6.143,29.919 8.284,24.699C9.652,21.364 12.054,19.479 15.377,19.461C14.276,23.586 13.882,28.492 13.882,33.758L22.142,33.758C21.945,35.164 21.859,36.688 21.848,38.282C21.656,40.005 22.896,47.216 22.896,47.216C22.896,47.216 26.434,41.364 27.077,39.461C27.797,42.27 29.747,47.496 29.747,47.496C29.747,47.496 31.678,42.321 32.406,39.503C33.084,41.447 36.572,47.216 36.572,47.216C36.572,47.216 37.851,39.786 37.611,38.207C37.597,36.639 37.511,35.141 37.316,33.756L45.514,33.756C45.514,28.491 45.12,23.584 44.021,19.461C47.473,19.384 49.961,21.278 51.366,24.698C53.507,29.917 51.45,37.442 44.522,37.431C48.197,39.442 55.275,36.358 56.721,31.554C60.338,19.536 50.034,8.136 38.67,10.163ZM22.481,21.12C23.522,22.226 24.999,23.017 27.064,23.372L27.064,23.381C27.064,24.954 25.789,26.229 24.216,26.229C22.642,26.229 21.367,24.954 21.367,23.381C21.367,22.461 21.804,21.641 22.483,21.122L22.481,21.12ZM38.537,23.379C38.537,24.952 37.262,26.228 35.689,26.228C34.116,26.228 32.841,24.952 32.841,23.379C32.841,23.344 32.842,23.308 32.842,23.273C34.766,22.856 36.141,22.029 37.106,20.91C37.313,21.028 37.504,21.173 37.673,21.337L37.674,21.343C37.676,21.343 37.676,21.341 37.678,21.341C38.209,21.859 38.539,22.581 38.539,23.379L38.537,23.379ZM13.371,52.562C11.989,57.718 19.119,59.289 20.417,54.45C20.938,52.504 19.944,42.118 19.944,42.118C19.944,42.118 13.892,50.616 13.371,52.562ZM39.289,42.118C39.289,42.118 38.297,52.504 38.816,54.45C40.114,59.289 47.244,57.718 45.862,52.562C45.341,50.616 39.289,42.118 39.289,42.118ZM32.751,44.893C32.751,44.893 30.829,52.359 30.984,53.841C31.372,57.523 36.759,57.197 36.345,53.274C36.189,51.793 32.751,44.893 32.751,44.893ZM23.096,53.274C22.682,57.197 28.069,57.523 28.457,53.841C28.613,52.359 26.691,44.893 26.691,44.893C26.691,44.893 23.252,51.793 23.096,53.274Z" style="fill:#000;"/>
</svg>
