<?xml version="1.0" encoding="UTF-8" standalone="no"?>
<svg
        width="60"
        height="60"
        viewBox="0 0 60 60"
        version="1.1"
        xml:space="preserve"
        style="clip-rule:evenodd;fill-rule:evenodd;stroke-linejoin:round;stroke-miterlimit:2"
        xmlns="http://www.w3.org/2000/svg"
><path
            d="m 26.667,15.898 c 0,0.6 0.333,1 0.833,1 h 17.25 c 0.5,0 0.833,-0.4 0.833,-1 0,-0.6 -0.333,-1 -0.833,-1 H 27.5 c -0.5,0 -0.833,0.4 -0.833,1 z"
            style="fill:#000000;clip-rule:evenodd;fill-rule:nonzero;stroke-linejoin:round;stroke-miterlimit:2"
            />
    <path
            d="m 24.083,23.598 c 0.552,-0.735 0.787,-1.741 0.607,-2.7 h 21.977 c 0.083,0 0.25,0 0.333,-0.1 l 7.5,-4 c 0.333,-0.1 0.5,-0.5 0.5,-0.9 0,-0.4 -0.167,-0.8 -0.5,-0.9 l -7.5,-4 c -0.083,-0.1 -0.25,-0.1 -0.333,-0.1 H 24.745 c 0.119,-0.881 -0.101,-1.826 -0.662,-2.5 -0.5,-0.6 -1.25,-1 -2,-0.9 -0.75,0 -1.5,0.5 -1.916,1.3 -0.693,1.247 -1.207,2.635 -1.513,4.1 H 9.969 c -0.164,-1.117 -0.99,-2 -1.886,-2 H 7 c -1.083,0 -2,1.1 -2,2.4 v 5.2 c 0,1.3 0.917,2.4 1.917,2.5 H 8 c 0.999,0 1.854,-0.935 1.982,-2.1 h 8.634 c 0.306,1.551 0.858,3.033 1.634,4.4 0.417,0.7 1.083,1.1 1.833,1.2 0.75,0.1 1.5,-0.2 2,-0.9 z m 28.084,-7.7 -5.667,3 H 23.917 c -0.216,-0.466 -0.364,-0.959 -0.457,-1.478 -0.068,-0.394 -0.109,-0.8 -0.122,-1.223 0,-0.012 -0.001,-0.024 -0.001,-0.036 -0.002,-0.087 -0.004,-0.175 -0.004,-0.263 0,-0.967 0.235,-2.028 0.552,-2.911 0.012,-0.03 0.025,-0.059 0.038,-0.089 H 46.5 Z M 7,18.998 c -0.167,0 -0.333,-0.2 -0.333,-0.4 v -5.3 c 0,-0.2 0.166,-0.4 0.25,-0.4 H 8 c 0.167,0 0.333,0.2 0.333,0.4 h 0.084 v 0.127 c -0.054,0.137 -0.084,0.296 -0.084,0.473 v 4 c 0,0.177 0.03,0.336 0.084,0.473 v 0.227 c 0,0.2 -0.167,0.4 -0.334,0.4 z m 11.333,-2.1 H 10 v -2 h 8.333 z m 3.25,5.3 c -1,-1.8 -1.583,-4 -1.583,-6.2 v -0.1 c 0,-2.2 0.583,-4.2 1.5,-6 0.167,-0.3 0.417,-0.5 0.667,-0.5 0.166,0 0.416,0 0.666,0.3 0.167,0.2 0.25,0.5 0.25,0.7 0,0.2 0,0.4 -0.166,0.6 -0.834,1.4 -1.25,3.1 -1.25,4.9 0,0.115 0.002,0.228 0.005,0.342 10e-4,0.014 0.002,0.028 0.002,0.041 0.027,0.786 0.135,1.546 0.325,2.282 0.219,0.88 0.536,1.72 0.918,2.535 0.25,0.4 0.166,0.9 -0.084,1.2 -0.166,0.2 -0.416,0.3 -0.666,0.3 -0.167,0 -0.417,-0.1 -0.584,-0.4 z"
            style="fill:#000000;clip-rule:evenodd;fill-rule:nonzero;stroke-linejoin:round;stroke-miterlimit:2"
    />
    <text style="font-size:36px;fill:#000000;font-family:'JetBrains Mono';"
          x="50%" y="55"
          text-anchor="middle">60</text>
</svg>