<?xml version="1.0" encoding="UTF-8" standalone="no"?>
<!DOCTYPE svg PUBLIC "-//W3C//DTD SVG 1.1//EN" "http://www.w3.org/Graphics/SVG/1.1/DTD/svg11.dtd">
<svg width="100%" height="100%" viewBox="0 0 60 60" version="1.1" xmlns="http://www.w3.org/2000/svg" xmlns:xlink="http://www.w3.org/1999/xlink" xml:space="preserve" xmlns:serif="http://www.serif.com/" style="fill-rule:evenodd;clip-rule:evenodd;">
    <path d="M50.158,20.374L51.177,20.374C52.125,20.374 52.599,20.374 52.988,20.288C54.043,20.057 54.867,19.382 55.15,18.517C55.254,18.198 55.254,17.81 55.254,17.034C55.254,16.257 55.254,15.869 55.15,15.551C54.867,14.686 54.043,14.011 52.988,13.78C52.599,13.694 52.125,13.694 51.177,13.694L50.158,13.694M29.778,20.374L8.823,20.248C7.875,20.248 7.401,20.248 7.012,20.162C5.958,19.931 5.133,19.256 4.85,18.391C4.746,18.073 4.746,17.684 4.746,16.907C4.746,16.131 4.746,15.743 4.85,15.425C5.133,14.56 5.958,13.885 7.012,13.654C7.401,13.568 7.875,13.568 8.823,13.568L29.778,13.694M29.778,12.024L29.778,22.043C29.778,25.98 29.778,27.948 31.27,29.171C32.762,30.393 35.165,30.393 39.969,30.393C44.772,30.393 47.174,30.393 48.666,29.171C50.158,27.948 50.158,25.98 50.158,22.043L50.158,12.024C50.158,8.088 50.158,6.12 48.666,4.898C47.174,3.675 44.772,3.675 39.969,3.675C35.165,3.675 32.762,3.675 31.27,4.898C29.778,6.12 29.778,8.088 29.778,12.024Z" style="fill:none;fill-rule:nonzero;stroke:#000;stroke-width:2.68px;"/>
</svg>
