<?xml version="1.0" encoding="UTF-8" standalone="no"?>
<!DOCTYPE svg PUBLIC "-//W3C//DTD SVG 1.1//EN" "http://www.w3.org/Graphics/SVG/1.1/DTD/svg11.dtd">
<svg width="100%" height="100%" viewBox="0 0 60 60" version="1.1" xmlns="http://www.w3.org/2000/svg">
    <path d="M50.158,18.34L51.177,18.34C52.125,18.34 52.599,18.34 52.988,18.254C54.043,18.023 54.867,17.348 55.15,16.483C55.254,16.164 55.254,15.776 55.254,15C55.254,14.223 55.254,13.835 55.15,13.517C54.867,12.652 54.043,11.977 52.988,11.746C52.599,11.66 52.125,11.66 51.177,11.66L50.158,11.66M29.778,18.34L8.823,18.213C7.875,18.213 7.401,18.213 7.012,18.128C5.958,17.896 5.133,17.221 4.85,16.357C4.746,16.039 4.746,15.65 4.746,14.873C4.746,14.097 4.746,13.709 4.85,13.391C5.133,12.526 5.958,11.851 7.012,11.62C7.401,11.534 7.875,11.534 8.823,11.534L29.778,11.66M29.778,9.99L29.778,20.009C29.778,23.946 29.778,25.914 31.27,27.137C32.762,28.359 35.165,28.359 39.969,28.359C44.772,28.359 47.174,28.359 48.666,27.137C50.158,25.914 50.158,23.946 50.158,20.009L50.158,9.99C50.158,6.054 50.158,4.086 48.666,2.863C47.174,1.641 44.772,1.641 39.969,1.641C35.165,1.641 32.762,1.641 31.27,2.863C29.778,4.086 29.778,6.054 29.778,9.99Z" style="fill:none;stroke:#000;stroke-width:2.68px;"/>
</svg>
