<?xml version="1.0" encoding="UTF-8" standalone="no"?>
<!DOCTYPE svg PUBLIC "-//W3C//DTD SVG 1.1//EN" "http://www.w3.org/Graphics/SVG/1.1/DTD/svg11.dtd">
<svg width="100%" height="100%" viewBox="0 0 60 60" version="1.1" xmlns="http://www.w3.org/2000/svg">
    <path d="M58.36,15.004C58.36,14.488 58.098,13.995 57.634,13.631L57.628,13.627L48.282,6.351C47.789,5.967 47.112,5.763 46.418,5.788L24.484,6.605L24.484,6.228C24.479,4.455 22.617,2.995 20.353,2.993L15.48,2.993C14.385,2.993 13.334,3.333 12.559,3.94C11.786,4.547 11.35,5.37 11.35,6.228L11.351,9.444L5.77,9.444C3.505,9.445 1.643,10.904 1.64,12.679L1.64,17.319C1.641,18.176 2.076,19 2.851,19.607C3.625,20.213 4.677,20.554 5.771,20.554L11.352,20.555L11.352,23.771C11.356,25.545 13.219,27.004 15.483,27.007L20.355,27.007C21.451,27.008 22.502,26.666 23.277,26.06C24.05,25.454 24.486,24.63 24.486,23.772L24.486,23.396L46.42,24.216C47.114,24.242 47.791,24.038 48.285,23.654L57.628,16.38C58.096,16.016 58.36,15.52 58.36,15.004ZM16.308,23.124L16.308,19.908C16.308,19.05 15.873,18.227 15.098,17.621C14.324,17.014 13.273,16.672 12.178,16.672L6.596,16.672L6.596,13.326L12.178,13.326C14.442,13.324 16.304,11.865 16.307,10.091L16.306,6.875L19.528,6.875L19.53,23.124L16.308,23.124ZM45.565,20.297L24.485,19.509L24.485,16.941L39.528,16.943C40.184,16.943 40.814,16.738 41.279,16.374C42.24,15.622 42.24,14.382 41.278,13.629C40.814,13.265 40.184,13.061 39.528,13.061L24.484,13.059L24.484,10.492L45.563,9.707L52.366,15.003L45.565,20.297Z" style="stroke:#000;fill:#000000;"/>
</svg>
