<?xml version="1.0" encoding="UTF-8" standalone="no"?>
<!DOCTYPE svg PUBLIC "-//W3C//DTD SVG 1.1//EN" "http://www.w3.org/Graphics/SVG/1.1/DTD/svg11.dtd">
<svg width="100%" height="100%" viewBox="0 0 60 60" version="1.1" xmlns="http://www.w3.org/2000/svg" xmlns:xlink="http://www.w3.org/1999/xlink" xml:space="preserve" xmlns:serif="http://www.serif.com/" style="fill-rule:evenodd;clip-rule:evenodd;stroke-linejoin:round;stroke-miterlimit:2;">
    <path d="M58.36,14.287C58.36,13.771 58.098,13.278 57.634,12.914L57.628,12.91L48.282,5.634C47.789,5.25 47.112,5.046 46.418,5.071L24.484,5.888L24.484,5.511C24.479,3.738 22.617,2.278 20.353,2.276L15.48,2.276C14.385,2.276 13.334,2.616 12.559,3.223C11.786,3.83 11.35,4.653 11.35,5.511L11.351,8.727L5.77,8.727C3.505,8.728 1.643,10.187 1.64,11.962L1.64,16.602C1.641,17.459 2.076,18.283 2.851,18.89C3.625,19.496 4.677,19.837 5.771,19.837L11.352,19.838L11.352,23.054C11.356,24.828 13.219,26.287 15.483,26.29L20.355,26.29C21.451,26.291 22.502,25.949 23.277,25.343C24.05,24.737 24.486,23.913 24.486,23.055L24.486,22.679L46.42,23.499C47.114,23.525 47.791,23.321 48.285,22.937L57.628,15.663C58.096,15.299 58.36,14.803 58.36,14.287ZM16.308,22.407L16.308,19.191C16.308,18.333 15.873,17.51 15.098,16.904C14.324,16.297 13.273,15.955 12.178,15.955L6.596,15.955L6.596,12.609L12.178,12.609C14.442,12.607 16.304,11.148 16.307,9.374L16.306,6.158L19.528,6.158L19.53,22.407L16.308,22.407ZM45.565,19.58L24.485,18.792L24.485,16.224L39.528,16.226C40.184,16.226 40.814,16.021 41.279,15.657C42.24,14.905 42.24,13.665 41.278,12.912C40.814,12.548 40.184,12.344 39.528,12.344L24.484,12.342L24.484,9.775L45.563,8.99L52.366,14.286L45.565,19.58Z" style="fill:#000000;fill-rule:nonzero;"/>
</svg>
