<?xml version="1.0" encoding="UTF-8" standalone="no"?>
<!DOCTYPE svg PUBLIC "-//W3C//DTD SVG 1.1//EN" "http://www.w3.org/Graphics/SVG/1.1/DTD/svg11.dtd">
<svg width="100%" height="100%" viewBox="0 0 60 60" version="1.1" xmlns="http://www.w3.org/2000/svg" xmlns:xlink="http://www.w3.org/1999/xlink" xml:space="preserve" xmlns:serif="http://www.serif.com/" style="fill-rule:evenodd;clip-rule:evenodd;stroke-linejoin:round;stroke-miterlimit:2;">
    <path d="M28.135,19.272L28.135,26.835L31.885,26.835L31.885,19.253C35.568,18.95 39.01,17.817 42.004,16.047L45.886,22.772L49.134,20.897L45.08,13.875C47.937,11.486 50.265,8.385 51.729,5.022L48.291,3.525C46.906,6.707 44.58,9.637 41.75,11.724C41.683,11.774 41.614,11.824 41.545,11.873C38.332,14.18 34.341,15.56 30.002,15.584L30,15.584L29.886,15.585L29.883,15.585C25.572,15.584 21.601,14.245 18.387,11.988C15.409,9.896 13.089,7.02 11.749,3.695L8.271,5.096C9.676,8.585 11.964,11.64 14.86,14.015L10.886,20.897L14.134,22.772L17.953,16.156C20.972,17.903 24.435,19.006 28.135,19.272Z" style="fill:#000000;fill-rule:nonzero;"/>
</svg>
