<?xml version="1.0" encoding="UTF-8" standalone="no"?>
<!DOCTYPE svg PUBLIC "-//W3C//DTD SVG 1.1//EN" "http://www.w3.org/Graphics/SVG/1.1/DTD/svg11.dtd">
<svg width="100%" height="100%" viewBox="0 0 60 60" version="1.1" xmlns="http://www.w3.org/2000/svg" xmlns:xlink="http://www.w3.org/1999/xlink" xml:space="preserve" xmlns:serif="http://www.serif.com/" style="fill-rule:evenodd;clip-rule:evenodd;stroke-linecap:square;">
    <path d="M12.816,42.5C15.085,24.672 29.398,10 50,10L47.5,20L40,20L42.5,25L37.5,30L27.5,30L32.5,35L30,40L20,40L12.816,42.5Z" style="fill:#ffd700;"/>
    <path d="M12.816,42.5C12.607,44.143 12.5,45.813 12.5,47.5L12.5,52.5M12.816,42.5C15.085,24.672 29.398,10 50,10L47.5,20L40,20L42.5,25L37.5,30L27.5,30L32.5,35L30,40L20,40L12.816,42.5Z" style="fill:none;fill-rule:nonzero;stroke:#000;stroke-width:2.5px;"/>
</svg>
