<svg width="100%" height="100%" viewBox="0 0 60 60" version="1.1" xmlns="http://www.w3.org/2000/svg"
     style="fill-rule:evenodd;clip-rule:evenodd;stroke-linecap:round;stroke-linejoin:round;">
    <path d="M10,20L15,50L45,50L50,20M10,20L14.291,23.432C17.08,25.664 18.475,26.78 19.881,26.953C21.113,27.105 22.357,26.793 23.372,26.079C24.53,25.263 25.234,23.621 26.641,20.337L30,12.5M10,20C11.381,20 12.5,18.881 12.5,17.5C12.5,16.119 11.381,15 10,15C8.619,15 7.5,16.119 7.5,17.5C7.5,18.881 8.619,20 10,20ZM50,20L45.71,23.433C42.92,25.664 41.525,26.78 40.119,26.953C38.887,27.105 37.643,26.793 36.628,26.079C35.47,25.263 34.766,23.621 33.359,20.337L30,12.5M50,20C51.381,20 52.5,18.881 52.5,17.5C52.5,16.119 51.381,15 50,15C48.619,15 47.5,16.119 47.5,17.5C47.5,18.881 48.619,20 50,20ZM30,12.5C31.381,12.5 32.5,11.381 32.5,10C32.5,8.619 31.381,7.5 30,7.5C28.619,7.5 27.5,8.619 27.5,10C27.5,11.381 28.619,12.5 30,12.5ZM30,10L30.025,10M50,17.5L50.025,17.5M10,17.5L10.025,17.5" style="fill:none;fill-rule:nonzero;stroke:#000;stroke-width:5px;"/>
</svg>
