<?xml version="1.0" encoding="UTF-8" standalone="no"?>
<!DOCTYPE svg PUBLIC "-//W3C//DTD SVG 1.1//EN" "http://www.w3.org/Graphics/SVG/1.1/DTD/svg11.dtd">
<svg width="100%" height="100%" viewBox="0 0 60 60" version="1.1" xmlns="http://www.w3.org/2000/svg" xmlns:xlink="http://www.w3.org/1999/xlink" xml:space="preserve" xmlns:serif="http://www.serif.com/" style="fill-rule:evenodd;clip-rule:evenodd;stroke-linejoin:round;stroke-miterlimit:2;">
    <g>
        <path d="M50.181,40.314C49.647,39.779 48.78,39.779 48.245,40.314C47.71,40.849 47.71,41.716 48.245,42.25L48.48,42.485L34.27,56.695L11.52,33.944L11.755,33.709C12.29,33.175 12.29,32.308 11.755,31.773C11.22,31.238 10.353,31.238 9.819,31.773L8.616,32.976C8.359,33.233 8.215,33.581 8.215,33.944C8.215,34.307 8.359,34.655 8.616,34.912L33.302,59.599C33.57,59.866 33.92,60 34.27,60C34.621,60 34.971,59.866 35.238,59.599L51.384,43.453C51.641,43.196 51.785,42.848 51.785,42.485C51.785,42.122 51.641,41.774 51.384,41.517L50.181,40.314Z" style="fill-rule:nonzero;fill:#000;"/>
        <path d="M50.181,32.099C49.647,31.565 48.78,31.565 48.245,32.099C47.71,32.634 47.71,33.501 48.245,34.036L48.48,34.27L34.27,48.48L11.52,25.73L11.755,25.495C12.29,24.96 12.29,24.093 11.755,23.558C11.22,23.024 10.353,23.024 9.819,23.558L8.616,24.761C8.081,25.296 8.081,26.163 8.616,26.698L33.302,51.384C33.57,51.652 33.92,51.785 34.27,51.785C34.621,51.785 34.971,51.652 35.239,51.384L51.384,35.239C51.641,34.982 51.785,34.634 51.785,34.27C51.785,33.907 51.641,33.559 51.384,33.302L50.181,32.099Z" style="fill-rule:nonzero;fill:#000;"/>
        <path d="M25.73,3.305L48.48,26.056L34.27,40.265L11.52,17.515L25.73,3.305Z" style="fill:#ff0;"/>
        <path d="M33.302,43.17C33.57,43.437 33.92,43.571 34.27,43.571C34.621,43.571 34.971,43.437 35.239,43.17L51.384,27.024C51.641,26.767 51.785,26.419 51.785,26.056C51.785,25.693 51.641,25.345 51.384,25.088L26.698,0.401C26.163,-0.134 25.296,-0.134 24.762,0.401L8.616,16.547C8.359,16.804 8.215,17.152 8.215,17.515C8.215,17.878 8.359,18.226 8.616,18.483L33.302,43.17ZM25.73,3.305L48.48,26.056L34.27,40.265L11.52,17.515L25.73,3.305Z" style="fill-rule:nonzero;fill:#000;"/>
    </g>
</svg>
