<?xml version="1.0" encoding="UTF-8" standalone="no"?>
<!DOCTYPE svg PUBLIC "-//W3C//DTD SVG 1.1//EN" "http://www.w3.org/Graphics/SVG/1.1/DTD/svg11.dtd">
<svg width="100%" height="100%" viewBox="0 0 800 800" version="1.1" xmlns="http://www.w3.org/2000/svg"
     xml:space="preserve"
     style="fill-rule:evenodd;clip-rule:evenodd;stroke-linejoin:round;stroke-miterlimit:2;">
    <path d="M515.6,135.5C497.925,121 477.075,110.225 452.625,103.825C447.95,98.05 442.35,93.075 436.05,89.125C420.475,56.925 400.45,24.225 400.45,24.225C400.45,24.225 380.45,56.9 364.875,89.1C359.5,92.475 354.625,96.575 350.425,101.275C321.375,107.075 297.125,118.65 276.95,135.05C126.525,110.35 -8.875,261.475 39.05,420.75C58.325,484.8 152.7,525.95 201.7,499.1C109.35,499.25 81.9,398.925 110.45,329.325C128.7,284.85 160.725,259.725 205.025,259.475C190.35,314.475 185.1,379.9 185.1,450.1L295.225,450.1C292.6,468.85 291.45,489.175 291.3,510.425C288.75,533.4 305.275,629.55 305.275,629.55C305.275,629.55 352.45,551.525 361.025,526.15C370.625,563.6 396.625,633.275 396.625,633.275C396.625,633.275 422.375,564.275 432.075,526.7C441.125,552.625 487.625,629.55 487.625,629.55C487.625,629.55 504.675,530.475 501.475,509.425C501.3,488.525 500.15,468.55 497.55,450.075L606.85,450.075C606.85,379.875 601.6,314.45 586.95,259.475C632.975,258.45 666.15,283.7 684.875,329.3C713.425,398.9 686,499.225 593.625,499.075C642.625,525.9 737,484.775 756.275,420.725C804.5,260.475 667.125,108.475 515.6,135.5ZM299.75,281.6C313.625,296.35 333.325,306.9 360.85,311.625L360.85,311.75C360.85,332.725 343.85,349.725 322.875,349.725C301.9,349.725 284.9,332.725 284.9,311.75C284.9,299.475 290.725,288.55 299.775,281.625L299.75,281.6ZM513.825,311.725C513.825,332.7 496.825,349.7 475.85,349.7C454.875,349.7 437.875,332.7 437.875,311.725C437.875,311.25 437.9,310.775 437.9,310.3C463.55,304.75 481.875,293.725 494.75,278.8C497.5,280.375 500.05,282.3 502.3,284.5L502.325,284.575C502.35,284.575 502.35,284.55 502.375,284.55C509.45,291.45 513.85,301.075 513.85,311.725L513.825,311.725ZM178.275,700.825C159.85,769.575 254.925,790.525 272.225,726C279.175,700.05 265.925,561.575 265.925,561.575C265.925,561.575 185.225,674.875 178.275,700.825ZM523.85,561.575C523.85,561.575 510.625,700.05 517.55,726C534.85,790.525 629.925,769.575 611.5,700.825C604.55,674.875 523.85,561.575 523.85,561.575ZM436.675,598.575C436.675,598.575 411.05,698.125 413.125,717.875C418.3,766.975 490.125,762.625 484.6,710.325C482.525,690.575 436.675,598.575 436.675,598.575ZM307.95,710.325C302.425,762.625 374.25,766.975 379.425,717.875C381.5,698.125 355.875,598.575 355.875,598.575C355.875,598.575 310.025,690.575 307.95,710.325Z"
          style="fill:#000;"/>
</svg>
