<svg width="100%" height="100%" viewBox="0 0 60 60" version="1.1" xmlns="http://www.w3.org/2000/svg" xmlns:xlink="http://www.w3.org/1999/xlink" xml:space="preserve" xmlns:serif="http://www.serif.com/" style="fill-rule:evenodd;clip-rule:evenodd;stroke-linejoin:round;stroke-miterlimit:2;">
    <path d="M38.75,36.25C36.029,36.417 33.384,35.402 30.733,34.384C28.428,33.499 26.118,32.612 23.75,32.5C19.74,32.31 15.514,34.023 12.926,35.323C11.282,36.148 10.076,37.697 10.008,39.535C10.003,39.689 10,39.844 10,40C10,46.903 15.596,52.5 22.5,52.5L37.5,52.5C44.403,52.5 50,46.903 50,40C50,39.087 49.902,38.197 49.716,37.339C49.171,34.823 46.235,34.102 43.821,34.998C42.186,35.605 40.326,36.153 38.75,36.25ZM22.5,41.25C22.5,43.321 20.821,45 18.75,45C16.679,45 15,43.321 15,41.25C15,39.179 16.679,37.5 18.75,37.5C20.821,37.5 22.5,39.179 22.5,41.25ZM31.25,49.375C32.976,49.375 34.375,47.976 34.375,46.25C34.375,44.524 32.976,43.125 31.25,43.125C29.524,43.125 28.125,44.524 28.125,46.25C28.125,47.976 29.524,49.375 31.25,49.375ZM42.5,42.5C42.5,43.881 41.381,45 40,45C38.619,45 37.5,43.881 37.5,42.5C37.5,41.119 38.619,40 40,40C41.381,40 42.5,41.119 42.5,42.5Z" style="fill:#ffff00;"/>
    <path d="M25,22.5L25,17.061C25.629,17.344 26.324,17.5 27.05,17.5L32.951,17.5C33.676,17.5 34.371,17.344 35,17.061L35,22.5C35,23.881 36.119,25 37.5,25C45.784,25 52.5,31.716 52.5,40C52.5,48.284 45.784,55 37.5,55L22.5,55C14.216,55 7.5,48.284 7.5,40C7.5,31.716 14.216,25 22.5,25C23.881,25 25,23.881 25,22.5ZM40,5L39.452,5C39.458,2.303 37.269,0 34.451,0L25.55,0C22.731,0 20.542,2.303 20.548,5L20,5C18.619,5 17.5,6.119 17.5,7.5C17.5,8.881 18.619,10 20,10L20,20.155C10.134,21.385 2.5,29.801 2.5,40C2.5,51.046 11.454,60 22.5,60L37.5,60C48.546,60 57.5,51.046 57.5,40C57.5,29.801 49.866,21.385 40,20.155L40,10C41.381,10 42.5,8.881 42.5,7.5C42.5,6.119 41.381,5 40,5ZM25.55,5L27.05,12.5L32.951,12.5L34.451,5L25.55,5Z" style="fill:#000;"/>
</svg>
