<svg width="100%" height="100%" viewBox="0 0 60 60" version="1.1" xmlns="http://www.w3.org/2000/svg"
     style="fill-rule:evenodd;clip-rule:evenodd;stroke-linecap:round;stroke-linejoin:round;">
    <path d="M28.173,11.028C28.752,9.729 29.041,9.08 29.444,8.88C29.794,8.707 30.205,8.707 30.555,8.88C30.958,9.08 31.248,9.729 31.826,11.028L36.436,21.37C36.608,21.754 36.693,21.946 36.826,22.093C36.942,22.223 37.086,22.327 37.246,22.398C37.426,22.479 37.635,22.501 38.053,22.545L49.314,23.733C50.728,23.883 51.434,23.957 51.749,24.279C52.023,24.558 52.15,24.949 52.093,25.336C52.027,25.781 51.499,26.256 50.443,27.208L42.031,34.789C41.719,35.07 41.563,35.211 41.464,35.382C41.377,35.534 41.322,35.702 41.304,35.876C41.283,36.073 41.326,36.278 41.414,36.689L43.763,47.766C44.058,49.157 44.206,49.852 43.997,50.251C43.816,50.597 43.484,50.839 43.098,50.904C42.655,50.979 42.039,50.624 40.808,49.914L30.999,44.256C30.635,44.046 30.453,43.941 30.259,43.9C30.088,43.864 29.911,43.864 29.74,43.9C29.546,43.941 29.364,44.046 29,44.256L19.192,49.914C17.96,50.624 17.344,50.979 16.901,50.904C16.516,50.839 16.183,50.597 16.002,50.251C15.793,49.852 15.941,49.157 16.236,47.766L18.585,36.689C18.672,36.278 18.716,36.073 18.695,35.876C18.677,35.702 18.622,35.534 18.535,35.382C18.436,35.211 18.28,35.07 17.968,34.789L9.556,27.208C8.5,26.256 7.972,25.781 7.906,25.336C7.849,24.949 7.976,24.558 8.25,24.279C8.565,23.957 9.271,23.883 10.685,23.733L21.946,22.545C22.364,22.501 22.573,22.479 22.753,22.398C22.913,22.327 23.057,22.223 23.174,22.093C23.306,21.946 23.392,21.754 23.563,21.37L28.173,11.028Z" style="fill:none;fill-rule:nonzero;stroke:#000;stroke-width:5px;"/>
</svg>
