<?xml version="1.0" encoding="UTF-8" standalone="no"?>
<!DOCTYPE svg PUBLIC "-//W3C//DTD SVG 1.1//EN" "http://www.w3.org/Graphics/SVG/1.1/DTD/svg11.dtd">
<svg width="100%" height="100%" viewBox="0 0 60 60" version="1.1" xmlns="http://www.w3.org/2000/svg"
     xml:space="preserve"
     style="fill-rule:evenodd;clip-rule:evenodd;stroke-linecap:round;stroke-linejoin:round;">
    <path d="M43.502,48C39.741,50.826 35.066,52.5 30,52.5C17.574,52.5 7.5,42.427 7.5,30C7.5,17.574 17.574,7.5 30,7.5C42.427,7.5 52.5,17.574 52.5,30L52.5,33.75C52.5,37.202 49.702,40 46.25,40C42.798,40 40,37.202 40,33.75L40,20M40,30C40,35.523 35.523,40 30,40C24.477,40 20,35.523 20,30C20,24.477 24.477,20 30,20C35.523,20 40,24.477 40,30Z"
          style="fill:none;stroke:#000;stroke-width:5px;"/>
</svg>
