<?xml version="1.0" encoding="UTF-8" standalone="no"?>
<!DOCTYPE svg PUBLIC "-//W3C//DTD SVG 1.1//EN" "http://www.w3.org/Graphics/SVG/1.1/DTD/svg11.dtd">
<svg width="100%" height="100%" viewBox="0 0 800 671" version="1.1" xmlns="http://www.w3.org/2000/svg" xmlns:xlink="http://www.w3.org/1999/xlink" xml:space="preserve" xmlns:serif="http://www.serif.com/" style="fill-rule:evenodd;clip-rule:evenodd;stroke-linejoin:round;stroke-miterlimit:2;">
    <path d="M800,193.536L800,0L0.05,0L0.05,167.694L0,167.694L0,361.23L0.05,361.23L0.05,503.156L0,503.156L0,670.887L129.075,670.887L129.075,670.925L670.977,670.925L670.977,670.887L799.95,670.887L799.95,528.998L800,528.998L800,335.462L799.95,335.462L799.95,193.536L800,193.536ZM283.903,25.805L516.147,25.805L516.147,167.731L283.903,167.731L283.903,25.805ZM645.172,193.536L645.172,335.462L412.928,335.462L412.928,193.536L645.172,193.536ZM387.122,193.536L387.122,335.462L154.88,335.462L154.88,193.536L387.122,193.536ZM25.855,25.805L258.098,25.805L258.098,167.731L25.855,167.731L25.855,25.805ZM25.805,193.498L129.023,193.498L129.023,335.425L25.805,335.425L25.805,193.498ZM129.025,645.083L25.806,645.083L25.806,528.961L129.025,528.961L129.025,645.083ZM25.855,503.194L25.855,361.267L258.098,361.267L258.098,503.194L25.855,503.194ZM387.123,645.12L154.88,645.12L154.88,528.998L387.123,528.998L387.123,645.12ZM283.903,503.194L283.903,361.267L516.147,361.267L516.147,503.194L283.903,503.194ZM645.172,645.12L412.928,645.12L412.928,528.998L645.172,528.998L645.172,645.12ZM774.145,645.083L670.927,645.083L670.927,528.961L774.145,528.961L774.145,645.083ZM774.195,503.194L541.952,503.194L541.952,361.267L774.195,361.267L774.195,503.194ZM670.925,335.425L670.925,193.498L774.144,193.498L774.144,335.425L670.925,335.425ZM774.195,167.731L541.952,167.731L541.952,25.805L774.195,25.805L774.195,167.731Z" style="fill-rule:nonzero;"/>
</svg>
