<?xml version="1.0" encoding="UTF-8" standalone="no"?>
<!DOCTYPE svg PUBLIC "-//W3C//DTD SVG 1.1//EN" "http://www.w3.org/Graphics/SVG/1.1/DTD/svg11.dtd">
<svg width="100%" height="100%" viewBox="0 0 800 800" version="1.1" xmlns="http://www.w3.org/2000/svg" xmlns:xlink="http://www.w3.org/1999/xlink" xml:space="preserve" xmlns:serif="http://www.serif.com/" style="fill-rule:evenodd;clip-rule:evenodd;stroke-linecap:round;stroke-linejoin:round;">
    <path d="M600,700L200,700L200,206.667C200,169.33 200,150.661 207.266,136.401C213.658,123.856 223.856,113.658 236.401,107.266C250.661,100 269.33,100 306.667,100L493.333,100C530.67,100 549.34,100 563.6,107.266C576.143,113.658 586.343,123.856 592.733,136.401C600,150.661 600,169.33 600,206.667L600,700Z" style="fill:#ffff00;"/>
    <path d="M100,700L700,700M600,700L600,206.667C600,169.33 600,150.661 592.733,136.401C586.343,123.856 576.143,113.658 563.6,107.266C549.34,100 530.67,100 493.333,100L306.667,100C269.33,100 250.661,100 236.401,107.266C223.856,113.658 213.658,123.856 207.266,136.401C200,150.661 200,169.33 200,206.667L200,700M500,400L500.333,400" style="fill:none;fill-rule:nonzero;stroke:#000;stroke-width:66.67px;"/>
</svg>
