<?xml version="1.0" encoding="UTF-8" standalone="no"?>
<!DOCTYPE svg PUBLIC "-//W3C//DTD SVG 1.1//EN" "http://www.w3.org/Graphics/SVG/1.1/DTD/svg11.dtd">
<svg width="100%" height="100%" viewBox="0 0 100 100" version="1.1" xmlns="http://www.w3.org/2000/svg" xmlns:xlink="http://www.w3.org/1999/xlink" xml:space="preserve" xmlns:serif="http://www.serif.com/" style="fill-rule:evenodd;clip-rule:evenodd;stroke-linecap:round;stroke-linejoin:round;">
    <path d="M62.625,37.5L62.667,37.5M62.625,62.5C76.432,62.5 87.625,51.307 87.625,37.5C87.625,23.693 76.432,12.5 62.625,12.5C48.818,12.5 37.625,23.693 37.625,37.5C37.625,38.64 37.701,39.763 37.849,40.863C38.092,42.672 38.214,43.576 38.132,44.148C38.047,44.745 37.938,45.065 37.645,45.591C37.363,46.096 36.865,46.593 35.871,47.587L14.578,68.881C13.857,69.601 13.497,69.962 13.239,70.382C13.011,70.755 12.842,71.161 12.74,71.587C12.625,72.066 12.625,72.576 12.625,73.595L12.625,80.833C12.625,83.167 12.625,84.334 13.079,85.225C13.479,86.009 14.116,86.646 14.9,87.046C15.791,87.5 16.958,87.5 19.292,87.5L26.53,87.5C27.549,87.5 28.059,87.5 28.538,87.385C28.964,87.283 29.37,87.115 29.743,86.886C30.163,86.628 30.524,86.268 31.244,85.548L52.538,64.254C53.532,63.26 54.029,62.763 54.534,62.48C55.06,62.187 55.38,62.078 55.977,61.993C56.549,61.911 57.453,62.033 59.263,62.276C60.362,62.424 61.485,62.5 62.625,62.5Z" style="fill:#14b8a6;fill-rule:nonzero;stroke:#000;stroke-width:8.33px;"/>
</svg>
