<?xml version="1.0" encoding="iso-8859-1"?>
<!-- Uploaded to: SVG Repo, www.svgrepo.com, Generator: SVG Repo Mixer Tools -->
<!DOCTYPE svg PUBLIC "-//W3C//DTD SVG 1.1//EN" "http://www.w3.org/Graphics/SVG/1.1/DTD/svg11.dtd">
<svg fill="#000000" height="800px" width="800px" version="1.1" id="Capa_1" xmlns="http://www.w3.org/2000/svg" xmlns:xlink="http://www.w3.org/1999/xlink" 
	 viewBox="0 0 256.283 256.283" xml:space="preserve">
<g>
	<path d="M230.429,47.533h-51.144c-5.522,0-10,4.477-10,10V94.72h-41.144c-5.522,0-10,4.477-10,10v37.188H76.998
		c-5.522,0-10,4.477-10,10v37.188H25.855c-5.522,0-10,4.477-10,10v47.188c0,5.523,4.478,10,10,10h204.574c5.522,0,10-4.477,10-10
		V57.533C240.429,52.01,235.951,47.533,230.429,47.533z M220.429,236.283H35.855v-27.188h41.144c5.522,0,10-4.477,10-10v-37.188
		h41.144c5.522,0,10-4.477,10-10V114.72h41.144c5.522,0,10-4.477,10-10V67.533h31.144V236.283z"/>
	<path d="M27.811,118.543h45.275c5.522,0,10-4.477,10-10s-4.478-10-10-10H51.954l81.471-81.471c3.905-3.905,3.905-10.237,0-14.143
		c-3.906-3.905-10.236-3.905-14.143,0L37.811,84.401V63.268c0-5.523-4.478-10-10-10s-10,4.477-10,10v45.275
		C17.811,114.066,22.288,118.543,27.811,118.543z"/>
</g>
</svg>