<?xml version="1.0" encoding="UTF-8" standalone="no"?>
<!DOCTYPE svg PUBLIC "-//W3C//DTD SVG 1.1//EN" "http://www.w3.org/Graphics/SVG/1.1/DTD/svg11.dtd">
<svg width="100%" height="100%" viewBox="0 0 60 60" version="1.1" xmlns="http://www.w3.org/2000/svg">
    <path d="M28.135,19.092L28.135,26.655L31.885,26.655L31.885,19.073C35.568,18.77 39.01,17.637 42.004,15.867L45.886,22.592L49.134,20.717L45.08,13.695C47.937,11.306 50.265,8.205 51.729,4.842L48.291,3.345C46.906,6.527 44.58,9.457 41.75,11.544C41.683,11.594 41.614,11.644 41.545,11.693C38.332,14 34.341,15.38 30.002,15.404L29.886,15.405L29.883,15.405C25.572,15.404 21.601,14.065 18.387,11.808C15.409,9.716 13.089,6.84 11.749,3.515L8.271,4.916C9.676,8.405 11.964,11.46 14.86,13.835L10.886,20.717L14.134,22.592L17.953,15.976C20.972,17.723 24.435,18.826 28.135,19.092Z" style="stroke:#000;fill:#000000;"/>
</svg>
