<?xml version="1.0" encoding="UTF-8" standalone="no"?>
<!DOCTYPE svg PUBLIC "-//W3C//DTD SVG 1.1//EN" "http://www.w3.org/Graphics/SVG/1.1/DTD/svg11.dtd">
<svg width="100%" height="100%" viewBox="0 0 60 60" version="1.1" xmlns="http://www.w3.org/2000/svg">
    <path d="M57.768,14.684C57.761,15.359 57.417,15.994 56.852,16.374L48.222,22.174C47.287,22.802 46.035,22.564 45.425,21.641C44.816,20.719 45.079,19.462 46.014,18.833L49.054,16.79L22.272,17.055L17.098,22.229C16.716,22.611 16.199,22.829 15.663,22.835L4.233,22.947C3.416,22.956 2.684,22.471 2.378,21.719C2.073,20.967 2.254,20.096 2.838,19.512L7.167,15.183L2.923,10.939C2.351,10.367 2.186,9.499 2.506,8.741C2.827,7.983 3.568,7.484 4.386,7.475L15.816,7.363C16.352,7.357 16.864,7.565 17.239,7.94L22.312,13.013L49.093,12.749L46.093,10.765C45.171,10.155 44.932,8.903 45.56,7.969C46.189,7.034 47.446,6.771 48.368,7.381L56.885,13.011C57.443,13.38 57.775,14.008 57.768,14.684ZM16.597,13.07L14.939,11.412L9.224,11.469L10.882,13.126L16.597,13.07ZM10.842,17.167L9.151,18.858L14.866,18.802L16.557,17.111L10.842,17.167Z" style="fill:#000000;"/>
</svg>
