<?xml version="1.0" encoding="UTF-8" standalone="no"?>
<!DOCTYPE svg PUBLIC "-//W3C//DTD SVG 1.1//EN" "http://www.w3.org/Graphics/SVG/1.1/DTD/svg11.dtd">
<svg width="100%" height="100%" viewBox="0 0 60 60" version="1.1" xmlns="http://www.w3.org/2000/svg">
    <path d="M54.234,18.525C56.825,15.918 58.246,12.457 58.235,8.781C58.232,7.937 57.546,7.254 56.701,7.257L29.004,7.342C28.383,5.597 26.703,4.29 24.668,4.296C22.675,4.303 20.979,5.586 20.353,7.368L9.386,7.401C5.161,7.414 1.751,10.844 1.764,15.07C1.777,19.296 5.207,22.706 9.433,22.692L20.4,22.659C20.632,23.309 21.007,23.892 21.487,24.369C22.32,25.197 23.469,25.708 24.733,25.704C26.767,25.698 28.44,24.382 29.051,22.633L44.515,22.585C48.191,22.574 51.643,21.132 54.234,18.525ZM9.424,19.634C6.888,19.642 4.83,17.597 4.822,15.061C4.816,13.027 6.122,11.346 7.867,10.725L7.881,15.052C7.883,15.896 8.57,16.579 9.414,16.576C10.259,16.573 10.941,15.887 10.939,15.042L10.925,10.455L13.983,10.445L13.997,15.033C14,15.877 14.686,16.56 15.531,16.557C16.375,16.555 17.058,15.868 17.055,15.024L17.041,10.436L20.1,10.427L20.128,19.601L9.424,19.634ZM24.724,22.646C23.881,22.649 23.193,21.964 23.19,21.121L23.153,8.889C23.15,8.045 23.834,7.357 24.677,7.355C25.521,7.352 26.209,8.036 26.211,8.879C26.212,9.203 26.248,20.792 26.249,21.112C26.251,21.955 25.567,22.643 24.724,22.646ZM29.302,19.574L29.293,16.515L41.438,16.478C42.283,16.476 42.965,15.789 42.963,14.945C42.96,14.1 42.273,13.418 41.429,13.42L29.284,13.457L29.274,10.399L55.074,10.32C54.757,12.6 53.717,14.707 52.065,16.369C50.05,18.397 47.365,19.519 44.506,19.527L29.302,19.574Z" style="stroke:#000;fill:#000000;"/>
</svg>
