<?xml version="1.0" encoding="UTF-8" standalone="no"?>
<!DOCTYPE svg PUBLIC "-//W3C//DTD SVG 1.1//EN" "http://www.w3.org/Graphics/SVG/1.1/DTD/svg11.dtd">
<svg width="100%" height="100%" viewBox="0 0 60 60" version="1.1" xmlns="http://www.w3.org/2000/svg" xmlns:xlink="http://www.w3.org/1999/xlink" xml:space="preserve" xmlns:serif="http://www.serif.com/" style="fill-rule:evenodd;clip-rule:evenodd;stroke-linejoin:round;stroke-miterlimit:2;">
    <path d="M25.854,23.781L25.854,19.272C26.376,19.506 26.952,19.636 27.554,19.636L32.447,19.636C33.048,19.636 33.624,19.506 34.146,19.272L34.146,23.781C34.146,24.926 35.074,25.854 36.219,25.854C43.087,25.854 48.656,31.423 48.656,38.292C48.656,45.16 43.087,50.729 36.219,50.729L23.781,50.729C16.913,50.729 11.344,45.16 11.344,38.292C11.344,31.423 16.913,25.854 23.781,25.854C24.926,25.854 25.854,24.926 25.854,23.781Z" style="fill:#ff0;"/>
    <path d="M25.854,23.781L25.854,19.272C26.376,19.506 26.952,19.636 27.554,19.636L32.447,19.636C33.048,19.636 33.624,19.506 34.146,19.272L34.146,23.781C34.146,24.926 35.074,25.854 36.219,25.854C43.087,25.854 48.656,31.423 48.656,38.292C48.656,45.16 43.087,50.729 36.219,50.729L23.781,50.729C16.913,50.729 11.344,45.16 11.344,38.292C11.344,31.423 16.913,25.854 23.781,25.854C24.926,25.854 25.854,24.926 25.854,23.781ZM38.292,9.271L37.837,9.271C37.842,7.035 36.027,5.125 33.691,5.125L26.31,5.125C23.973,5.125 22.158,7.035 22.163,9.271L21.708,9.271C20.563,9.271 19.636,10.199 19.636,11.344C19.636,12.489 20.563,13.417 21.708,13.417L21.708,21.837C13.528,22.857 7.198,29.835 7.198,38.292C7.198,47.45 14.623,54.875 23.781,54.875L36.219,54.875C45.377,54.875 52.802,47.45 52.802,38.292C52.802,29.835 46.472,22.857 38.292,21.837L38.292,13.417C39.437,13.417 40.364,12.489 40.364,11.344C40.364,10.199 39.437,9.271 38.292,9.271ZM26.31,9.271L27.554,15.49L32.447,15.49L33.691,9.271L26.31,9.271Z" style="fill:#000;"/>
</svg>
