<?xml version="1.0" encoding="UTF-8" standalone="no"?>
<!DOCTYPE svg PUBLIC "-//W3C//DTD SVG 1.1//EN" "http://www.w3.org/Graphics/SVG/1.1/DTD/svg11.dtd">
<svg width="100%" height="100%" viewBox="0 0 60 60" version="1.1" xmlns="http://www.w3.org/2000/svg" xmlns:xlink="http://www.w3.org/1999/xlink" xml:space="preserve" xmlns:serif="http://www.serif.com/" style="fill-rule:evenodd;clip-rule:evenodd;stroke-linecap:round;stroke-linejoin:round;">
    <path d="M12.527,47.494L12.527,12.966C12.527,9.944 12.527,8.434 13.003,7.28C13.422,6.264 14.09,5.439 14.912,4.922C15.846,4.334 17.07,4.334 19.516,4.334L40.484,4.334C42.93,4.334 44.154,4.334 45.088,4.922C45.91,5.439 46.578,6.264 46.997,7.28C47.473,8.434 47.473,9.944 47.473,12.966L47.473,42.099L16.895,42.099C14.483,42.099 12.527,44.514 12.527,47.494ZM12.527,47.494C12.527,50.473 14.483,52.889 16.895,52.889L47.473,52.889M45.289,42.099L45.289,52.889" style="fill:none;fill-rule:nonzero;stroke:#000;stroke-width:4.91px;"/>
    <path d="M29.183,34.512C29.444,34.648 29.575,34.716 29.757,34.752C29.898,34.779 30.102,34.779 30.243,34.752C30.425,34.716 30.556,34.648 30.817,34.512C33.237,33.251 40.195,29.132 40.195,23.447L40.195,18.627C40.195,17.608 40.195,17.098 40.028,16.66C39.881,16.274 39.642,15.928 39.331,15.655C38.98,15.345 38.503,15.166 37.549,14.808L30.716,12.246C30.451,12.147 30.319,12.097 30.182,12.077C30.061,12.06 29.939,12.06 29.818,12.077C29.681,12.097 29.549,12.147 29.284,12.246L22.451,14.808C21.497,15.166 21.02,15.345 20.669,15.655C20.358,15.928 20.119,16.274 19.972,16.66C19.805,17.098 19.805,17.608 19.805,18.627L19.805,23.447C19.805,29.132 26.763,33.251 29.183,34.512Z" style="fill:none;fill-rule:nonzero;stroke:#000;stroke-width:4px;"/>
</svg>
