<?xml version="1.0" encoding="UTF-8" standalone="no"?>
<!DOCTYPE svg PUBLIC "-//W3C//DTD SVG 1.1//EN" "http://www.w3.org/Graphics/SVG/1.1/DTD/svg11.dtd">
<svg width="100%" height="100%" viewBox="0 0 60 60" version="1.1" xmlns="http://www.w3.org/2000/svg" xmlns:xlink="http://www.w3.org/1999/xlink" xml:space="preserve" xmlns:serif="http://www.serif.com/" style="fill-rule:evenodd;clip-rule:evenodd;stroke-linejoin:round;stroke-miterlimit:2;">
    <path d="M20.414,24.825C20.84,24.328 21.284,23.817 21.744,23.289C24.26,20.397 27.228,16.984 30,12.542C32.772,16.984 35.74,20.397 38.256,23.289C38.716,23.817 39.16,24.328 39.586,24.825C43.063,28.886 45,31.719 45,35.424C45,43.417 38.343,50 30,50C21.658,50 15,43.417 15,35.424C15,31.719 16.937,28.886 20.414,24.825Z" style="fill:#ff0;"/>
    <path d="M30,2.069L32.22,6.349C35.259,12.211 38.803,16.292 42.006,19.98C42.473,20.518 42.933,21.047 43.383,21.573C46.833,25.601 50,29.698 50,35.424C50,46.293 40.987,55 30,55C19.012,55 10,46.293 10,35.424C10,29.698 13.167,25.601 16.617,21.573C17.067,21.047 17.527,20.518 17.994,19.98C21.197,16.292 24.741,12.211 27.781,6.349L30,2.069ZM20.414,24.825C16.937,28.886 15,31.719 15,35.424C15,43.417 21.658,50 30,50C38.343,50 45,43.417 45,35.424C45,31.719 43.063,28.886 39.586,24.825C39.16,24.328 38.716,23.817 38.256,23.289C35.74,20.397 32.772,16.984 30,12.542C27.228,16.984 24.26,20.397 21.744,23.289C21.284,23.817 20.84,24.328 20.414,24.825Z" style="fill:#000000;"/>
</svg>
