<?xml version="1.0" encoding="UTF-8" standalone="no"?>
<!DOCTYPE svg PUBLIC "-//W3C//DTD SVG 1.1//EN" "http://www.w3.org/Graphics/SVG/1.1/DTD/svg11.dtd">
<svg width="100%" height="100%" viewBox="0 0 60 60" version="1.1" xmlns="http://www.w3.org/2000/svg" xmlns:xlink="http://www.w3.org/1999/xlink" xml:space="preserve" xmlns:serif="http://www.serif.com/" style="fill-rule:evenodd;clip-rule:evenodd;stroke-linecap:round;stroke-linejoin:round;">
    <path d="M37.575,22.5L37.6,22.5M37.575,37.5C45.859,37.5 52.575,30.784 52.575,22.5C52.575,14.216 45.859,7.5 37.575,7.5C29.291,7.5 22.575,14.216 22.575,22.5C22.575,23.184 22.621,23.858 22.709,24.518C22.855,25.603 22.928,26.146 22.879,26.489C22.828,26.847 22.763,27.039 22.587,27.355C22.418,27.658 22.119,27.956 21.523,28.552L8.747,41.329C8.314,41.761 8.098,41.977 7.943,42.229C7.807,42.453 7.705,42.697 7.644,42.952C7.575,43.24 7.575,43.546 7.575,44.157L7.575,48.5C7.575,49.9 7.575,50.6 7.847,51.135C8.087,51.605 8.47,51.988 8.94,52.228C9.475,52.5 10.175,52.5 11.575,52.5L15.918,52.5C16.529,52.5 16.835,52.5 17.123,52.431C17.378,52.37 17.622,52.269 17.846,52.132C18.098,51.977 18.314,51.761 18.746,51.329L31.523,38.552C32.119,37.956 32.417,37.658 32.72,37.488C33.036,37.312 33.228,37.247 33.586,37.196C33.929,37.147 34.472,37.22 35.558,37.366C36.217,37.454 36.891,37.5 37.575,37.5Z" style="fill:#ff0;fill-rule:nonzero;stroke:#000;stroke-width:4px;"/>
</svg>
