<svg width="100%" height="100%" viewBox="0 0 60 60" version="1.1" xmlns="http://www.w3.org/2000/svg"
     xml:space="preserve">
    <path d="M60,17.306L60,0L0.004,0L0.004,14.995L0,14.995L0,32.301L0.004,32.301L0.004,44.992L0,44.992L0,59.99L9.681,59.99L9.681,59.993L50.323,59.993L50.323,59.99L59.996,59.99L59.996,47.302L60,47.302L60,29.997L59.996,29.997L59.996,17.306L60,17.306ZM21.293,2.307L38.711,2.307L38.711,14.998L21.293,14.998L21.293,2.307ZM48.388,17.306L48.388,29.997L30.97,29.997L30.97,17.306L48.388,17.306ZM29.034,17.306L29.034,29.997L11.616,29.997L11.616,17.306L29.034,17.306ZM1.939,2.307L19.357,2.307L19.357,14.998L1.939,14.998L1.939,2.307ZM1.935,17.302L9.677,17.302L9.677,29.993L1.935,29.993L1.935,17.302ZM9.677,57.683L1.935,57.683L1.935,47.299L9.677,47.299L9.677,57.683ZM1.939,44.995L1.939,32.304L19.357,32.304L19.357,44.995L1.939,44.995ZM29.034,57.686L11.616,57.686L11.616,47.302L29.034,47.302L29.034,57.686ZM21.293,44.995L21.293,32.304L38.711,32.304L38.711,44.995L21.293,44.995ZM48.388,57.686L30.97,57.686L30.97,47.302L48.388,47.302L48.388,57.686ZM58.061,57.683L50.32,57.683L50.32,47.299L58.061,47.299L58.061,57.683ZM58.065,44.995L40.646,44.995L40.646,32.304L58.065,32.304L58.065,44.995ZM50.319,29.993L50.319,17.302L58.061,17.302L58.061,29.993L50.319,29.993ZM58.065,14.998L40.646,14.998L40.646,2.307L58.065,2.307L58.065,14.998Z"
          style="fill:#000;"/>
</svg>
