<?xml version="1.0" encoding="UTF-8" standalone="no"?>
<!DOCTYPE svg PUBLIC "-//W3C//DTD SVG 1.1//EN" "http://www.w3.org/Graphics/SVG/1.1/DTD/svg11.dtd">
<svg width="100%" height="100%" viewBox="0 0 60 60" version="1.1" xmlns="http://www.w3.org/2000/svg" xmlns:xlink="http://www.w3.org/1999/xlink" xml:space="preserve" xmlns:serif="http://www.serif.com/" style="fill-rule:evenodd;clip-rule:evenodd;stroke-linejoin:round;stroke-miterlimit:2;">
    <path d="M30.001,14.812C46.544,14.812 60.001,28.273 60.001,44.812C60.001,47.223 59.825,58.334 59.825,58.334L42.457,58.219L42.457,54.69L56.027,54.69C56.324,53.105 56.472,46.467 56.472,44.812C56.472,30.215 44.596,18.342 30.001,18.342C15.404,18.342 3.531,30.215 3.531,44.812C3.531,46.468 3.679,53.105 3.972,54.69L19.205,54.69L19.205,58.219L0.082,58.244C0.082,58.244 0.001,47.223 0.001,44.812C0.001,28.273 13.459,14.812 30.001,14.812Z" style="fill:#000;"/>
    <path d="M25.962,42.42C26.315,44.496 26.697,46.608 27.068,48.481C27.648,51.407 28.201,53.747 28.571,54.445C29.002,55.255 29.721,55.817 30.535,56.069C31.349,56.321 32.259,56.263 33.071,55.832C33.881,55.402 34.441,54.681 34.692,53.865C34.942,53.049 34.882,52.138 34.451,51.328C34.081,50.631 32.454,48.861 30.357,46.738C29.016,45.38 27.482,43.878 25.962,42.42ZM24.593,36.282C24.984,36.644 25.695,37.303 26.592,38.147C27.918,39.396 29.649,41.047 31.351,42.731C34.158,45.509 36.883,48.377 37.571,49.676C38.457,51.346 38.58,53.221 38.064,54.901C37.548,56.579 36.393,58.061 34.722,58.948C34.221,59.214 33.7,59.41 33.172,59.541C32.627,59.676 32.074,59.742 31.525,59.742C30.278,59.742 29.05,59.402 27.982,58.764C26.945,58.144 26.058,57.243 25.451,56.1C24.763,54.801 23.919,50.936 23.195,47.054C23.095,46.522 22.998,45.989 22.904,45.463C22.301,42.089 21.821,38.972 21.65,37.842C21.595,37.472 21.659,37.104 21.819,36.785C21.98,36.465 22.237,36.194 22.567,36.021C22.901,35.845 23.268,35.782 23.622,35.827C23.976,35.873 24.316,36.026 24.593,36.282Z" style="fill:#000;"/>
</svg>
