<?xml version="1.0" encoding="UTF-8" standalone="no"?>
<!DOCTYPE svg PUBLIC "-//W3C//DTD SVG 1.1//EN" "http://www.w3.org/Graphics/SVG/1.1/DTD/svg11.dtd">
<svg width="100%" height="100%" viewBox="0 0 60 60" version="1.1" xmlns="http://www.w3.org/2000/svg" xmlns:xlink="http://www.w3.org/1999/xlink" xml:space="preserve" xmlns:serif="http://www.serif.com/" style="fill-rule:evenodd;clip-rule:evenodd;stroke-linejoin:round;stroke-miterlimit:2;">
    <path d="M55.223,11.94C54.371,11.583 53.398,11.792 52.728,12.417L32.282,32.426L32.282,13.995C32.282,13.102 31.734,12.268 30.882,11.94C30.03,11.583 29.057,11.792 28.387,12.417L7.941,32.426L7.941,13.995C7.941,12.774 6.907,11.762 5.659,11.762C4.412,11.762 3.377,12.774 3.377,13.995L3.377,55.682C3.377,56.902 4.412,57.915 5.659,57.915C6.907,57.915 7.941,56.902 7.941,55.682L7.941,37.25L28.387,57.26C28.813,57.677 29.391,57.915 30,57.915C30.304,57.915 30.578,57.855 30.882,57.736C31.734,57.379 32.282,56.575 32.282,55.682L32.282,37.25L52.728,57.26C53.154,57.677 53.732,57.915 54.341,57.915C54.645,57.915 54.919,57.855 55.223,57.736C56.075,57.379 56.623,56.575 56.623,55.682L56.623,13.995C56.623,13.102 56.075,12.268 55.223,11.94ZM27.718,50.292L11.927,34.838L27.718,19.385L27.718,50.292ZM52.059,50.292L36.268,34.838L52.059,19.385L52.059,50.292Z" style="fill-rule:nonzero;stroke:#000;fill:#000;"/>
</svg>
