<?xml version="1.0" encoding="UTF-8" standalone="no"?>
<!DOCTYPE svg PUBLIC "-//W3C//DTD SVG 1.1//EN" "http://www.w3.org/Graphics/SVG/1.1/DTD/svg11.dtd">
<svg width="100%" height="100%" viewBox="0 0 60 60" version="1.1" xmlns="http://www.w3.org/2000/svg" xmlns:xlink="http://www.w3.org/1999/xlink" xml:space="preserve" xmlns:serif="http://www.serif.com/" style="fill-rule:evenodd;clip-rule:evenodd;stroke-linecap:round;stroke-linejoin:round;">
    <path d="M37.575,27.885L37.6,27.885M37.575,42.885C45.859,42.885 52.575,36.169 52.575,27.885C52.575,19.601 45.859,12.885 37.575,12.885C29.291,12.885 22.575,19.601 22.575,27.885C22.575,28.569 22.621,29.243 22.709,29.903C22.855,30.988 22.928,31.531 22.879,31.874C22.828,32.232 22.763,32.424 22.587,32.74C22.418,33.043 22.119,33.341 21.523,33.937L8.747,46.714C8.314,47.146 8.098,47.362 7.943,47.614C7.807,47.838 7.705,48.082 7.644,48.337C7.575,48.625 7.575,48.931 7.575,49.542L7.575,53.885C7.575,55.285 7.575,55.985 7.847,56.52C8.087,56.99 8.47,57.373 8.94,57.613C9.475,57.885 10.175,57.885 11.575,57.885L15.918,57.885C16.529,57.885 16.835,57.885 17.123,57.816C17.378,57.755 17.622,57.654 17.846,57.517C18.098,57.362 18.314,57.146 18.746,56.714L31.523,43.937C32.119,43.341 32.417,43.043 32.72,42.873C33.036,42.697 33.228,42.632 33.586,42.581C33.929,42.532 34.472,42.605 35.558,42.751C36.217,42.839 36.891,42.885 37.575,42.885Z" style="fill:#ff0;fill-rule:nonzero;stroke:#000;stroke-width:4px;"/>
</svg>
