<?xml version="1.0" encoding="UTF-8" standalone="no"?>
<!DOCTYPE svg PUBLIC "-//W3C//DTD SVG 1.1//EN" "http://www.w3.org/Graphics/SVG/1.1/DTD/svg11.dtd">
<svg width="100%" height="100%" viewBox="0 0 60 60" version="1.1" xmlns="http://www.w3.org/2000/svg" xmlns:xlink="http://www.w3.org/1999/xlink" xml:space="preserve" xmlns:serif="http://www.serif.com/" style="fill-rule:evenodd;clip-rule:evenodd;stroke-linecap:round;stroke-linejoin:round;">
    <path d="M28.522,56.748C28.995,56.994 29.232,57.118 29.559,57.181C29.816,57.231 30.184,57.231 30.441,57.181C30.769,57.118 31.005,56.994 31.479,56.748C35.855,54.468 48.44,47.016 48.44,36.733L48.44,28.015C48.44,26.173 48.44,25.251 48.138,24.459C47.872,23.759 47.439,23.135 46.878,22.64C46.242,22.08 45.38,21.756 43.654,21.11L31.294,16.475C30.816,16.295 30.576,16.206 30.33,16.17C30.112,16.138 29.889,16.138 29.67,16.17C29.424,16.206 29.184,16.295 28.706,16.475L16.346,21.11C14.621,21.756 13.758,22.08 13.122,22.64C12.561,23.135 12.128,23.759 11.862,24.459C11.56,25.251 11.56,26.173 11.56,28.015L11.56,36.733C11.56,47.016 24.145,54.468 28.522,56.748Z" style="fill:none;fill-rule:nonzero;stroke:#000;stroke-width:4.5px;"/>
</svg>
