<?xml version="1.0" encoding="UTF-8" standalone="no"?>
<!DOCTYPE svg PUBLIC "-//W3C//DTD SVG 1.1//EN" "http://www.w3.org/Graphics/SVG/1.1/DTD/svg11.dtd">
<svg width="100%" height="100%" viewBox="0 0 60 60" version="1.1" xmlns="http://www.w3.org/2000/svg" xmlns:xlink="http://www.w3.org/1999/xlink" xml:space="preserve" xmlns:serif="http://www.serif.com/" style="fill-rule:evenodd;clip-rule:evenodd;stroke-linecap:round;stroke-linejoin:round;">
    <path d="M28.397,56.708C28.91,56.975 29.167,57.109 29.522,57.178C29.8,57.232 30.2,57.232 30.478,57.178C30.834,57.109 31.09,56.975 31.604,56.708C36.35,54.235 50,46.153 50,35L50,25.544C50,23.546 50,22.546 49.673,21.687C49.384,20.928 48.915,20.251 48.306,19.714C47.616,19.106 46.681,18.755 44.809,18.054L31.404,13.027C30.885,12.832 30.625,12.735 30.358,12.696C30.121,12.662 29.88,12.662 29.642,12.696C29.375,12.735 29.115,12.832 28.596,13.027L15.191,18.054C13.32,18.755 12.384,19.106 11.694,19.714C11.085,20.251 10.616,20.928 10.327,21.687C10,22.546 10,23.546 10,25.544L10,35C10,46.153 23.65,54.235 28.397,56.708Z" style="fill:none;fill-rule:nonzero;stroke:#000;stroke-width:4px;"/>
</svg>
