<?xml version="1.0" encoding="UTF-8" standalone="no"?>
<!DOCTYPE svg PUBLIC "-//W3C//DTD SVG 1.1//EN" "http://www.w3.org/Graphics/SVG/1.1/DTD/svg11.dtd">
<svg width="100%" height="100%" viewBox="0 0 60 60" version="1.1" xmlns="http://www.w3.org/2000/svg" xmlns:xlink="http://www.w3.org/1999/xlink" xml:space="preserve" xmlns:serif="http://www.serif.com/" style="fill-rule:evenodd;clip-rule:evenodd;stroke-linejoin:round;stroke-miterlimit:2;">
    <path d="M50.079,17.004C49.714,16.639 49.18,16.476 48.594,16.546L48.587,16.548L36.834,18.012C36.214,18.089 35.591,18.423 35.118,18.931L20.186,35.019L19.919,34.752C18.662,33.502 16.313,33.786 14.71,35.386L11.265,38.832C10.49,39.606 9.988,40.589 9.869,41.567C9.752,42.542 10.025,43.433 10.632,44.039L12.907,46.313L8.96,50.259C7.359,51.861 7.074,54.21 8.327,55.467L11.608,58.748C12.215,59.353 13.105,59.628 14.083,59.509C15.058,59.391 16.043,58.888 16.817,58.114L20.764,54.169L23.038,56.443C24.295,57.694 26.644,57.409 28.247,55.81L31.692,52.365C32.468,51.591 32.969,50.606 33.089,49.629C33.207,48.654 32.933,47.763 32.326,47.156L32.06,46.89L48.15,31.961C48.659,31.488 48.993,30.865 49.071,30.244L50.534,18.494C50.607,17.906 50.443,17.369 50.079,17.004ZM26.085,52.481L23.811,50.207C23.204,49.6 22.315,49.326 21.338,49.445C20.362,49.563 19.377,50.065 18.602,50.839L14.655,54.786L12.289,52.42L16.236,48.473C17.836,46.871 18.121,44.522 16.869,43.266L14.594,40.992L16.872,38.714L28.363,50.203L26.085,52.481ZM44.774,29.794L29.311,44.143L22.934,37.767L37.284,22.307L45.839,21.242L44.774,29.794Z" style="fill:#000000;"/>
</svg>
