<?xml version="1.0" encoding="UTF-8" standalone="no"?>
<!DOCTYPE svg PUBLIC "-//W3C//DTD SVG 1.1//EN" "http://www.w3.org/Graphics/SVG/1.1/DTD/svg11.dtd">
<svg width="100%" height="100%" viewBox="0 0 60 60" version="1.1" xmlns="http://www.w3.org/2000/svg" xmlns:xlink="http://www.w3.org/1999/xlink" xml:space="preserve" xmlns:serif="http://www.serif.com/" style="fill-rule:evenodd;clip-rule:evenodd;stroke-linejoin:round;stroke-miterlimit:2;">
    <path d="M53.146,12.726C52.744,12.325 52.156,12.145 51.511,12.222L51.504,12.224L38.569,13.836C37.886,13.92 37.201,14.288 36.68,14.847L20.246,32.553L19.952,32.259C18.569,30.884 15.984,31.196 14.22,32.957L10.428,36.75C9.575,37.602 9.023,38.683 8.892,39.76C8.763,40.833 9.063,41.813 9.731,42.48L12.235,44.983L7.891,49.326C6.129,51.089 5.816,53.674 7.195,55.058L10.806,58.669C11.474,59.335 12.453,59.637 13.53,59.506C14.603,59.376 15.687,58.823 16.538,57.971L20.882,53.629L23.385,56.132C24.769,57.509 27.354,57.195 29.118,55.435L32.91,51.644C33.764,50.792 34.315,49.708 34.447,48.633C34.577,47.56 34.275,46.579 33.607,45.911L33.315,45.618L51.023,29.188C51.583,28.667 51.951,27.981 52.036,27.298L53.647,14.366C53.727,13.719 53.546,13.128 53.146,12.726ZM26.739,51.771L24.236,49.269C23.568,48.601 22.589,48.299 21.514,48.43C20.44,48.56 19.356,49.112 18.503,49.964L14.159,54.308L11.555,51.704L15.899,47.36C17.66,45.597 17.974,43.012 16.596,41.63L14.092,39.127L16.599,36.62L29.246,49.264L26.739,51.771ZM47.307,26.803L30.289,42.595L23.271,35.578L39.064,18.563L48.479,17.391L47.307,26.803Z" style="fill:#000;"/>
</svg>
